<mxfile host="65bd71144e">
    <diagram id="BB-P8LQBv9p690ByxCHv" name="Página-1">
        <mxGraphModel dx="604" dy="673" grid="1" gridSize="1" guides="0" tooltips="1" connect="1" arrows="1" fold="1" page="1" pageScale="1" pageWidth="413" pageHeight="291" background="none" math="1" shadow="1">
            <root>
                <mxCell id="0"/>
                <mxCell id="1" parent="0"/>
                <mxCell id="5" value="\(Torque\)" style="text;html=1;align=center;verticalAlign=middle;resizable=0;points=[];autosize=1;strokeColor=none;fillColor=none;fontSize=16;fontStyle=0;shadow=0;" parent="1" vertex="1">
                    <mxGeometry x="362" y="403" width="87" height="32" as="geometry"/>
                </mxCell>
                <mxCell id="8" style="html=1;dashed=1;shadow=0;opacity=60;fillColor=#eeeeee;strokeColor=#242629;" parent="1" edge="1">
                    <mxGeometry relative="1" as="geometry">
                        <mxPoint x="295.25" y="484" as="sourcePoint"/>
                        <mxPoint x="296.1833333333334" y="540" as="targetPoint"/>
                    </mxGeometry>
                </mxCell>
                <mxCell id="12" style="html=1;dashed=1;shadow=0;opacity=60;fillColor=#eeeeee;strokeColor=#242629;" parent="1" edge="1">
                    <mxGeometry relative="1" as="geometry">
                        <mxPoint x="185.5000000000001" y="611" as="sourcePoint"/>
                        <mxPoint x="185.5000000000001" y="560" as="targetPoint"/>
                    </mxGeometry>
                </mxCell>
                <mxCell id="14" style="html=1;dashed=1;shadow=0;opacity=60;fillColor=#eeeeee;strokeColor=#242629;" parent="1" target="5" edge="1">
                    <mxGeometry relative="1" as="geometry">
                        <mxPoint x="376" y="605" as="targetPoint"/>
                        <mxPoint x="391.4999999999999" y="648" as="sourcePoint"/>
                    </mxGeometry>
                </mxCell>
                <mxCell id="xDvWY9CC_lDF_F3b0lNS-16" value="" style="rounded=0;whiteSpace=wrap;html=1;fillColor=none;opacity=70;" parent="1" vertex="1">
                    <mxGeometry x="715" y="-40" width="622" height="279" as="geometry"/>
                </mxCell>
                <mxCell id="25" style="edgeStyle=orthogonalEdgeStyle;html=1;exitX=0.5;exitY=1;exitDx=0;exitDy=0;entryX=0.5;entryY=0;entryDx=0;entryDy=0;" edge="1" parent="1" source="17" target="19">
                    <mxGeometry relative="1" as="geometry"/>
                </mxCell>
                <mxCell id="17" value="ESP32" style="rounded=0;whiteSpace=wrap;html=1;" vertex="1" parent="1">
                    <mxGeometry x="118" y="438" width="251" height="75" as="geometry"/>
                </mxCell>
                <mxCell id="19" value="DRIVER" style="rounded=0;whiteSpace=wrap;html=1;" vertex="1" parent="1">
                    <mxGeometry x="232" y="647" width="164" height="62" as="geometry"/>
                </mxCell>
                <mxCell id="31" style="edgeStyle=orthogonalEdgeStyle;html=1;exitX=0.5;exitY=0;exitDx=0;exitDy=0;entryX=1;entryY=0;entryDx=0;entryDy=0;endArrow=none;endFill=0;" edge="1" parent="1" source="21" target="17">
                    <mxGeometry relative="1" as="geometry"/>
                </mxCell>
                <mxCell id="21" value="CAPACITOR" style="rounded=0;whiteSpace=wrap;html=1;" vertex="1" parent="1">
                    <mxGeometry x="536" y="380" width="73" height="51" as="geometry"/>
                </mxCell>
                <mxCell id="22" value="FONTE 5V" style="rounded=0;whiteSpace=wrap;html=1;" vertex="1" parent="1">
                    <mxGeometry x="452" y="686" width="164" height="62" as="geometry"/>
                </mxCell>
                <mxCell id="23" value="CONJUNTO &lt;br&gt;MOTOR/HÉLICE" style="rounded=0;whiteSpace=wrap;html=1;" vertex="1" parent="1">
                    <mxGeometry x="656" y="596" width="164" height="62" as="geometry"/>
                </mxCell>
                <mxCell id="24" value="ENCODE/&lt;br&gt;POTENCIÔMETRO" style="rounded=0;whiteSpace=wrap;html=1;" vertex="1" parent="1">
                    <mxGeometry x="666" y="474" width="134" height="55" as="geometry"/>
                </mxCell>
                <mxCell id="26" style="edgeStyle=orthogonalEdgeStyle;html=1;exitX=0.44;exitY=1.005;exitDx=0;exitDy=0;exitPerimeter=0;entryX=0.426;entryY=-0.005;entryDx=0;entryDy=0;entryPerimeter=0;" edge="1" parent="1" source="17" target="19">
                    <mxGeometry relative="1" as="geometry">
                        <mxPoint x="239" y="514" as="sourcePoint"/>
                        <mxPoint x="315" y="648" as="targetPoint"/>
                        <Array as="points">
                            <mxPoint x="228" y="592"/>
                            <mxPoint x="302" y="592"/>
                        </Array>
                    </mxGeometry>
                </mxCell>
                <mxCell id="27" style="edgeStyle=orthogonalEdgeStyle;html=1;exitX=0.534;exitY=1.01;exitDx=0;exitDy=0;entryX=0.594;entryY=0.003;entryDx=0;entryDy=0;exitPerimeter=0;entryPerimeter=0;" edge="1" parent="1" source="17" target="19">
                    <mxGeometry relative="1" as="geometry">
                        <mxPoint x="244.5" y="514" as="sourcePoint"/>
                        <mxPoint x="315" y="648" as="targetPoint"/>
                        <Array as="points">
                            <mxPoint x="252" y="571"/>
                            <mxPoint x="329" y="571"/>
                        </Array>
                    </mxGeometry>
                </mxCell>
                <mxCell id="29" style="edgeStyle=orthogonalEdgeStyle;html=1;exitX=0.5;exitY=0;exitDx=0;exitDy=0;entryX=0.5;entryY=1;entryDx=0;entryDy=0;endArrow=none;endFill=0;" edge="1" parent="1" source="28" target="21">
                    <mxGeometry relative="1" as="geometry"/>
                </mxCell>
                <mxCell id="28" value="RESISTOR" style="rounded=0;whiteSpace=wrap;html=1;" vertex="1" parent="1">
                    <mxGeometry x="536" y="474" width="73" height="51" as="geometry"/>
                </mxCell>
            </root>
        </mxGraphModel>
    </diagram>
</mxfile>